<?xml version="1.0" encoding="UTF-8" standalone="no"?>
<svg
   xmlns:dc="http://purl.org/dc/elements/1.1/"
   xmlns:cc="http://creativecommons.org/ns#"
   xmlns:rdf="http://www.w3.org/1999/02/22-rdf-syntax-ns#"
   xmlns:svg="http://www.w3.org/2000/svg"
   xmlns="http://www.w3.org/2000/svg"
   xmlns:sodipodi="http://sodipodi.sourceforge.net/DTD/sodipodi-0.dtd"
   xmlns:inkscape="http://www.inkscape.org/namespaces/inkscape"
   viewBox="0 0 16 16"
   fill-rule="evenodd"
   clip-rule="evenodd"
   stroke-linejoin="round"
   stroke-miterlimit="1.414"
   version="1.1"
   id="svg3682"
   sodipodi:docname="discord.svg"
   inkscape:version="0.92.1 r15371">
  <metadata
     id="metadata3688">
    <rdf:RDF>
      <cc:Work
         rdf:about="">
        <dc:format>image/svg+xml</dc:format>
        <dc:type
           rdf:resource="http://purl.org/dc/dcmitype/StillImage" />
      </cc:Work>
    </rdf:RDF>
  </metadata>
  <defs
     id="defs3686" />
  <sodipodi:namedview
     pagecolor="#ffffff"
     bordercolor="#666666"
     borderopacity="1"
     objecttolerance="10"
     gridtolerance="10"
     guidetolerance="10"
     inkscape:pageopacity="0"
     inkscape:pageshadow="2"
     inkscape:window-width="1600"
     inkscape:window-height="837"
     id="namedview3684"
     showgrid="false"
     inkscape:zoom="41.75"
     inkscape:cx="4.1077844"
     inkscape:cy="8"
     inkscape:window-x="-8"
     inkscape:window-y="-8"
     inkscape:window-maximized="1"
     inkscape:current-layer="svg3682" />
  <path
     class="lines"
     d="M13.487-.002c.936 0 1.693.758 1.738 1.65v14.35l-1.783-1.515-.98-.892-1.07-.93.446 1.47h-9.36c-.935 0-1.693-.71-1.693-1.65V1.65C.785.76 1.543 0 2.48 0h11zm-4.08 3.788h-.02l-.134.134c1.382.4 2.05 1.025 2.05 1.025-.89-.446-1.694-.668-2.496-.758-.58-.09-1.16-.044-1.65 0h-.132c-.312 0-.98.134-1.872.49-.312.134-.49.223-.49.223s.668-.668 2.14-1.025l-.09-.09s-1.115-.043-2.318.848c0 0-1.203 2.095-1.203 4.68 0 0 .668 1.158 2.495 1.203 0 0 .268-.356.535-.668-1.025-.312-1.426-.936-1.426-.936s.09.044.223.133h.04c.02 0 .03.01.04.02v.005c.01.01.02.02.04.02.22.09.44.178.62.267.31.134.71.268 1.2.357.62.09 1.33.134 2.14 0 .4-.09.8-.178 1.2-.357.26-.133.58-.267.93-.49 0 0-.4.624-1.47.936.22.312.53.668.53.668 1.83-.04 2.54-1.2 2.58-1.15 0-2.58-1.21-4.68-1.21-4.68-1.09-.81-2.11-.84-2.29-.84zm.113 2.942c.468 0 .847.4.847.89 0 .493-.38.892-.847.892-.467 0-.846-.4-.846-.89 0-.493.38-.892.846-.892zm-3.03 0c.467 0 .846.4.846.89 0 .493-.38.892-.846.892-.468 0-.847-.4-.847-.89 0-.493.38-.892.847-.892z"
     id="path3680"
     style="fill:#ffbe31;fill-opacity:1" />
</svg>
