<?xml version="1.0" encoding="UTF-8" standalone="no"?>
<svg
   xmlns:dc="http://purl.org/dc/elements/1.1/"
   xmlns:cc="http://creativecommons.org/ns#"
   xmlns:rdf="http://www.w3.org/1999/02/22-rdf-syntax-ns#"
   xmlns:svg="http://www.w3.org/2000/svg"
   xmlns="http://www.w3.org/2000/svg"
   xmlns:sodipodi="http://sodipodi.sourceforge.net/DTD/sodipodi-0.dtd"
   xmlns:inkscape="http://www.inkscape.org/namespaces/inkscape"
   version="1.1"
   id="Ebene_2"
   x="0px"
   y="0px"
   viewBox="0 0 16 16"
   enable-background="new 0 0 16 16"
   xml:space="preserve"
   sodipodi:docname="linkedin.svg"
   inkscape:version="0.92.1 r15371"><metadata
     id="metadata4508"><rdf:RDF><cc:Work
         rdf:about=""><dc:format>image/svg+xml</dc:format><dc:type
           rdf:resource="http://purl.org/dc/dcmitype/StillImage" /></cc:Work></rdf:RDF></metadata><defs
     id="defs4506" /><sodipodi:namedview
     pagecolor="#ffffff"
     bordercolor="#666666"
     borderopacity="1"
     objecttolerance="10"
     gridtolerance="10"
     guidetolerance="10"
     inkscape:pageopacity="0"
     inkscape:pageshadow="2"
     inkscape:window-width="1600"
     inkscape:window-height="837"
     id="namedview4504"
     showgrid="false"
     inkscape:zoom="14.75"
     inkscape:cx="-3.0169492"
     inkscape:cy="8"
     inkscape:window-x="-8"
     inkscape:window-y="-8"
     inkscape:window-maximized="1"
     inkscape:current-layer="Ebene_2" /><g
     id="g4501"
     style="fill:#ffbe31;fill-opacity:1"><g
       id="g4499"
       style="fill:#ffbe31;fill-opacity:1"><path
         d="M14.815,0H1.181C0.529,0,0,0.517,0,1.153v13.693C0,15.483,0.529,16,1.181,16h13.634C15.467,16,16,15.483,16,14.845V1.153    C16,0.517,15.467,0,14.815,0z M4.745,13.634H2.371V5.999h2.374V13.634z M3.558,4.955c-0.761,0-1.376-0.617-1.376-1.376    c0-0.759,0.615-1.376,1.376-1.376c0.759,0,1.375,0.617,1.375,1.376C4.934,4.338,4.317,4.955,3.558,4.955z M13.633,13.634h-2.37    V9.921c0-0.886-0.017-2.025-1.234-2.025c-1.235,0-1.423,0.965-1.423,1.961v3.777H6.234V5.999H8.51v1.043h0.032    c0.317-0.6,1.091-1.233,2.246-1.233c2.401,0,2.845,1.581,2.845,3.638V13.634z"
         id="path4497"
         style="fill:#ffbe31;fill-opacity:1" /></g></g></svg>